<svg xmlns="http://www.w3.org/2000/svg" viewBox="0 0 220 260" role="img" aria-labelledby="title desc">
  <title id="title">Rootbody rb monogram for dark surfaces</title>
  <desc id="desc">A white lowercase r and teal b joined to a refined five-stroke root system.</desc>
  <path d="M40 132V91C40 62 58 45 86 45H101" fill="none" stroke="#F6F8FA" stroke-width="16" stroke-linecap="round" stroke-linejoin="round"/>
  <path d="M112 28V150M112 62H142C166 62 182 78 182 101C182 124 166 140 142 140H112" fill="none" stroke="#0FA3A3" stroke-width="14" stroke-linecap="round" stroke-linejoin="round"/>
  <path d="M112 150C112 178 112 204 112 228M110 158C94 169 78 180 58 187M110 168C99 181 91 197 87 214M114 158C130 169 146 180 166 187M114 168C125 181 133 197 137 214" fill="none" stroke="#0FA3A3" stroke-width="7.5" stroke-linecap="round" stroke-linejoin="round"/>
</svg>
